<?xml version="1.0" encoding="UTF-8"?>
<!DOCTYPE svg PUBLIC "-//W3C//DTD SVG 1.1//EN" "http://www.w3.org/Graphics/SVG/1.1/DTD/svg11.dtd">
<svg version="1.1" xmlns="http://www.w3.org/2000/svg" xmlns:xlink="http://www.w3.org/1999/xlink" x="0" y="0" width="200" height="200" viewBox="0, 0, 200, 200">
  <g id="root">
    <path d="M85.804,142.611 L115.301,178.574 L100,187.5 L70.674,170.393 L85.804,142.611 z M122.237,75.712 L87.039,140.342 L117.396,177.353 L144.08,161.786 L160.542,131.56 L122.237,75.712 z M62.361,114.03 L43.409,154.489 L68.61,169.189 L84.17,140.618 L62.361,114.03 z M162.057,133.77 L148.066,159.462 L170.645,146.291 L162.057,133.77 z M25,68.48 L25,143.75 L41.339,153.281 L60.684,111.986 L25,68.48 z M175,110.005 L163.34,131.415 L172.715,145.083 L175,143.75 L175,110.005 z M97.325,39.391 L63.487,111.628 L85.405,138.35 L120.721,73.502 L97.325,39.391 z M143.001,37.584 L123.519,73.357 L161.824,129.205 L175,105.012 L175,56.25 L143.001,37.584 z M84.916,21.299 L25,56.25 L25,64.705 L61.81,109.583 L95.76,37.109 L84.916,21.299 z M107.793,17.046 L98.501,36.881 L122.004,71.147 L140.938,36.38 L107.793,17.046 z M100,12.5 L86.986,20.092 L96.936,34.599 L105.724,15.839 L100,12.5 z" fill="#303841"/>
  </g>
</svg>
